HIERARCHY
ROOT pelvis
{
  OFFSET 0 100 0
  CHANNELS 6 Xposition Yposition Zposition Zrotation Xrotation Yrotation
  JOINT pelvis_right_femur
  {
    OFFSET -10.78128 -3.44521 -0.5502486
    CHANNELS 3 Zrotation Xrotation Yrotation
    JOINT right_femur_tibia
    {
      OFFSET -0.8047443 -44.0398 -0.1307829
      CHANNELS 3 Zrotation Xrotation Yrotation
      JOINT right_tibia_foot
      {
        OFFSET 3.006224 -47.83518 -5
        CHANNELS 3 Zrotation Xrotation Yrotation
        End Site
        {
          OFFSET 0 -5 15
        }
      }
    }
  }
  JOINT pelvis_left_femur
  {
    OFFSET 10.78128 -3.44521 -0.5502486
    CHANNELS 3 Zrotation Xrotation Yrotation
    JOINT left_femur_tibia
    {
      OFFSET 0.8047443 -44.0398 -0.1307829
      CHANNELS 3 Zrotation Xrotation Yrotation
      JOINT left_tibia_foot
      {
        OFFSET -4.370144 -48.10324 -4.275266
        CHANNELS 3 Zrotation Xrotation Yrotation
        End Site
        {
          OFFSET 0 -5 15
        }
      }
    }
  }
  JOINT pelvis_spine1
  {
    OFFSET 0 6.468898 -3.129235
    CHANNELS 3 Zrotation Xrotation Yrotation
    JOINT spine1
    {
      OFFSET 0 23.15396 4.99043
      CHANNELS 3 Zrotation Xrotation Yrotation
      JOINT spine2
      {
        OFFSET 0 20.79997 -5.064912
        CHANNELS 3 Zrotation Xrotation Yrotation
        JOINT neck
        {
          OFFSET 0 14.38658 9.616178
          CHANNELS 3 Zrotation Xrotation Yrotation
          End Site
          {
            OFFSET 0 20 0
          }
        }
      }
      JOINT right_manubrium
      {
        OFFSET -5.722621 16.35077 3.967754
        CHANNELS 3 Zrotation Xrotation Yrotation
        JOINT right_clavicle
        {
          OFFSET -13.16364 1.694482 -4.693211
          CHANNELS 3 Zrotation Xrotation Yrotation
          JOINT right_humerus
          {
            OFFSET -28.5034 -0.3100689 -2.792744
            CHANNELS 3 Zrotation Xrotation Yrotation
            JOINT right_radius
            {
              OFFSET -25.15693 0.02248979 -1.271978
              CHANNELS 3 Zrotation Xrotation Yrotation
              End Site
              {
                OFFSET -15 0 0
              }
            }
          }
        }
      }
      JOINT left_manubrium
      {
        OFFSET 5.722621 16.35077 3.967754
        CHANNELS 3 Zrotation Xrotation Yrotation
        JOINT left_clavicle
        {
          OFFSET 13.16364 1.694482 -4.693211
          CHANNELS 3 Zrotation Xrotation Yrotation
          JOINT left_humerus
          {
            OFFSET 29.39168 -1.063119 -2.237045
            CHANNELS 3 Zrotation Xrotation Yrotation
            JOINT left_radius
            {
              OFFSET 24.59957 -0.9528479 0.9047498
              CHANNELS 3 Zrotation Xrotation Yrotation
              End Site
              {
                OFFSET 15 -0 -0
              }
            }
          }
        }
      }
    }
  }
}
MOTION
Frames: 10
Frame Time: 0.0416666666667
0 103.5113 0 0.1721134 2.150504 0.4595695 3.191656 -16.45379 7.165817 3.996308e-09 31.51244 -4.52233e-09 -3.713241 -14.46201 -1.836576 -6.080064 3.742141 -19.52187 1.277496e-08 -0.7376987 1.883366e-09 3.560161 -19.4414 22.2335 -3.48467 -2.439742 4.593098 2.581689 7.869687 -7.65522 0.7566355 21.61376 7.826924 3.294176 -24.86581 9.448562 6.782677 -19.60126 11.66823 83.6149 38.20864 -16.37827 7.931571e-10 -1.316024e-09 18.50098 -10.54636 10.19376 7.392225 6.060049 -18.86415 0.03857675 -95.65202 29.01645 24.43682 8.181114e-10 1.190501e-09 -16.0719 1.720014 14.83918 12.05554
0.5715958 102.9955 2.743371 0.2364567 2.02787 1.013929 3.006159 -17.94408 7.224728 3.567751e-09 33.44995 -4.698024e-09 -3.331832 -13.71609 -2.210705 -6.280992 5.543998 -19.78782 1.345895e-08 -1.075643 4.339943e-09 3.403244 -20.15904 22.23871 -3.644268 -2.349819 4.341303 2.571445 7.746993 -7.766687 0.816057 21.79756 7.943514 3.300237 -24.76986 9.654015 6.909068 -19.13835 11.57988 84.44558 38.30653 -17.11266 7.416066e-10 -1.446659e-09 17.96821 -10.62477 10.22736 7.280673 6.156216 -18.87263 0.0347557 -95.43333 29.38507 23.46393 8.786716e-10 1.212025e-09 -16.47212 1.590636 14.72897 12.21393
1.131506 102.5102 5.519315 0.228795 1.984703 1.618477 3.013121 -19.62803 7.134485 2.834001e-09 34.01298 -4.612366e-09 -3.309153 -13.0446 -2.484911 -6.357564 7.313172 -19.92886 1.358134e-08 -0.9811981 6.502361e-09 3.373782 -20.7028 22.09444 -3.698904 -2.321539 4.093245 2.615877 7.72034 -7.932782 0.8421549 21.8946 8.010116 3.319457 -24.74957 9.756269 6.925727 -18.77483 11.52288 85.25723 38.247 -17.98474 6.526365e-10 -1.560737e-09 17.31521 -10.57762 10.22287 7.103046 6.28079 -19.10005 -0.05283734 -95.02739 29.51826 22.50444 9.497145e-10 1.199898e-09 -17.09708 1.759016 14.77933 12.01772
1.655334 102.0306 8.311822 0.1473744 2.021332 2.229466 3.22074 -21.52562 6.925206 1.810732e-09 33.20492 -4.290082e-09 -3.627078 -12.46991 -2.666831 -6.316076 9.059259 -19.95235 1.306904e-08 -0.337545 8.311194e-09 3.441367 -21.07687 21.80017 -3.64833 -2.351513 3.853415 2.719839 7.788058 -8.160817 0.8364234 21.91947 8.032258 3.354075 -24.81532 9.764718 6.848102 -18.50188 11.50559 86.11312 38.05709 -19.03609 5.258139e-10 -1.655268e-09 16.53977 -10.4053 10.19519 6.853157 6.434468 -19.5522 -0.2144998 -94.49929 29.43216 21.569 1.027108e-09 1.15174e-09 -17.97043 2.205689 14.97911 11.49713
2.120213 101.53 11.09403 -0.007744548 2.149971 2.80261 3.61159 -23.50304 6.613617 6.095742e-10 31.01167 -3.810343e-09 -4.276204 -12.04068 -2.724961 -6.159202 10.65145 -19.85844 1.195467e-08 0.7398285 9.652793e-09 3.619582 -21.24337 21.36346 -3.49386 -2.442397 3.635148 2.878557 7.93661 -8.430658 0.7964101 21.84244 8.001222 3.397834 -24.95347 9.666593 6.675702 -18.33263 11.51799 86.82518 37.75027 -20.13263 3.706406e-10 -1.723916e-09 15.6881 -10.08428 10.12639 6.535165 6.599587 -20.182 -0.4370091 -93.79214 29.13013 20.70859 1.106331e-09 1.071737e-09 -19.01699 2.91152 15.30601 10.6666
2.510108 100.9927 13.85654 -0.2064339 2.317563 3.307632 4.109208 -25.42901 6.258854 -6.155137e-10 27.97008 -3.30031e-09 -5.104413 -11.71935 -2.707344 -5.930827 12.06179 -19.66614 1.040956e-08 2.187282 1.060169e-08 3.828497 -21.2441 20.82675 -3.271085 -2.56342 3.442682 3.064653 8.131628 -8.713767 0.7383843 21.70019 7.931804 3.441827 -25.11585 9.49799 6.444078 -18.2223 11.54698 87.39687 37.36349 -21.2053 2.011943e-10 -1.765808e-09 14.80656 -9.693136 10.04165 6.184213 6.760293 -20.89846 -0.690284 -92.97258 28.68647 19.90854 1.177074e-09 9.693605e-10 -20.13533 3.755454 15.67632 9.66689
2.815722 100.4166 16.62264 -0.4186349 2.444497 3.723029 4.655858 -27.14789 5.900424 -1.769858e-09 24.5426 -2.814326e-09 -5.975673 -11.44941 -2.673319 -5.662919 13.23868 -19.35295 8.494572e-09 4.134007 1.117679e-08 3.958613 -21.08984 20.21283 -3.002257 -2.679927 3.286218 3.248088 8.358782 -8.983775 0.6811878 21.54567 7.835243 3.478527 -25.24973 9.290676 6.173856 -18.13304 11.59043 87.92593 36.88902 -22.22994 2.675512e-11 -1.772356e-09 13.93079 -9.355114 9.988684 5.847334 6.905734 -21.64092 -0.9582681 -92.15166 28.13953 19.15001 1.224225e-09 8.470531e-10 -21.24701 4.631053 16.01437 8.622195
3.045257 99.82479 19.45097 -0.5846147 2.433303 4.050998 5.122966 -28.44127 5.624422 -2.708447e-09 21.7097 -2.413669e-09 -6.60709 -11.1462 -2.721903 -5.430079 14.158 -18.94146 6.506339e-09 6.516376 1.15093e-08 3.850855 -20.85514 19.59303 -2.750394 -2.732488 3.169622 3.377971 8.558626 -9.19111 0.6560481 21.45175 7.740112 3.493654 -25.26601 9.113132 5.93064 -17.97481 11.62619 88.45902 36.38631 -23.11149 -1.29361e-10 -1.744238e-09 13.13136 -9.218322 10.0239 5.58428 7.013424 -22.25076 -1.189325 -91.44388 27.63252 18.37235 1.230972e-09 7.219277e-10 -22.18415 5.301126 16.18975 7.803155
3.217577 99.25596 22.41503 -0.6767475 2.239647 4.30303 5.454364 -29.10285 5.466519 -3.356085e-09 19.85598 -2.077951e-09 -6.855264 -10.7994 -2.890758 -5.256802 14.71043 -18.40677 4.545924e-09 9.3656 1.152097e-08 3.409702 -20.51915 18.97986 -2.536493 -2.689507 3.104692 3.425623 8.696763 -9.297136 0.6778794 21.42864 7.648709 3.47413 -25.09956 8.982677 5.739986 -17.69889 11.63557 88.88848 35.88459 -23.72862 -2.524357e-10 -1.673789e-09 12.45259 -9.342469 10.17197 5.420136 7.061269 -22.62296 -1.353441 -90.82057 27.22729 17.54137 1.183608e-09 6.011251e-10 -22.82805 5.630136 16.12721 7.351187
3.361943 98.76675 25.61519 -0.6651458 1.798889 4.498027 5.598754 -28.895 5.475809 -3.628241e-09 19.39901 -1.777447e-09 -6.552807 -10.40426 -3.238422 -5.164023 14.76364 -17.70622 2.666565e-09 12.87181 1.106998e-08 2.497287 -20.0467 18.38501 -2.378919 -2.510819 3.111004 3.359407 8.743332 -9.263255 0.7659781 21.50729 7.565782 3.407097 -24.68148 8.924149 5.633359 -17.25067 11.60795 89.19024 35.41058 -23.99631 -3.280543e-10 -1.547404e-09 11.94202 -9.822463 10.4804 5.390591 7.027681 -22.65677 -1.417494 -90.31638 26.9889 16.62477 1.062307e-09 4.877438e-10 -23.06693 5.464413 15.73681 7.433541
